/* XPM */
static char * block_xpm[] = {
"32 32 291 2",
"  	c #222222",
". 	c #483B3A",
"+ 	c #775C55",
"@ 	c #6C472F",
"# 	c #69432B",
"$ 	c #674329",
"% 	c #664129",
"& 	c #674129",
"* 	c #68432B",
"= 	c #6E4830",
"- 	c #734E33",
"; 	c #987458",
"> 	c #997559",
", 	c #977458",
"' 	c #987559",
") 	c #977659",
"! 	c #99775B",
"~ 	c #67422A",
"{ 	c #68432A",
"] 	c #6F4A32",
"^ 	c #6B462F",
"/ 	c #9A7457",
"( 	c #9B7558",
"_ 	c #734E34",
": 	c #744F34",
"< 	c #7A5539",
"[ 	c #7B563A",
"} 	c #7C583C",
"| 	c #98775B",
"1 	c #99795C",
"2 	c #674229",
"3 	c #69442B",
"4 	c #6D4930",
"5 	c #654027",
"6 	c #654028",
"7 	c #C8AB55",
"8 	c #734F35",
"9 	c #9A7B5F",
"0 	c #97775B",
"a 	c #69442C",
"b 	c #6A452D",
"c 	c #664028",
"d 	c #BE1212",
"e 	c #C855C4",
"f 	c #6F4A31",
"g 	c #97765B",
"h 	c #9C7D61",
"i 	c #6A462D",
"j 	c #556DC8",
"k 	c #6B462D",
"l 	c #98795C",
"m 	c #68442C",
"n 	c #99795D",
"o 	c #97785B",
"p 	c #5D371F",
"q 	c #613B23",
"r 	c #8E674B",
"s 	c #A08264",
"t 	c #664128",
"u 	c #6A452C",
"v 	c #937156",
"w 	c #795237",
"x 	c #643E26",
"y 	c #937155",
"z 	c #775135",
"A 	c #664027",
"B 	c #8F684B",
"C 	c #A28465",
"D 	c #A28466",
"E 	c #755036",
"F 	c #6F4A30",
"G 	c #926F53",
"H 	c #927054",
"I 	c #764F35",
"J 	c #5C361E",
"K 	c #694229",
"L 	c #8F684A",
"M 	c #674028",
"N 	c #8E684B",
"O 	c #A28566",
"P 	c #6D482F",
"Q 	c #6F4930",
"R 	c #724C33",
"S 	c #6E4931",
"T 	c #8F6D52",
"U 	c #7C5439",
"V 	c #754D35",
"W 	c #59331C",
"X 	c #69432A",
"Y 	c #8D6749",
"Z 	c #957051",
"` 	c #684227",
" .	c #8F694C",
"..	c #A38567",
"+.	c #A38668",
"@.	c #704B32",
"#.	c #704B31",
"$.	c #704A31",
"%.	c #916F54",
"&.	c #7A5036",
"*.	c #784E34",
"=.	c #603920",
"-.	c #754D34",
";.	c #744C34",
">.	c #724B31",
",.	c #59331B",
"'.	c #6A442B",
").	c #946E50",
"!.	c #967052",
"~.	c #9D7858",
"{.	c #704A2F",
"].	c #6A432A",
"^.	c #90694D",
"/.	c #98775A",
"(.	c #98765A",
"_.	c #845C41",
":.	c #633C23",
"<.	c #744C33",
"[.	c #714A31",
"}.	c #58321B",
"|.	c #9E795A",
"1.	c #9E7A5A",
"2.	c #9F7A5B",
"3.	c #9F7C5B",
"4.	c #6E482F",
"5.	c #6D472D",
"6.	c #8E674A",
"7.	c #8E664A",
"8.	c #8D6649",
"9.	c #855D42",
"0.	c #845D41",
"a.	c #684128",
"b.	c #643C24",
"c.	c #7F5A3D",
"d.	c #7E593D",
"e.	c #795438",
"f.	c #59321B",
"g.	c #6E472C",
"h.	c #A38060",
"i.	c #A48160",
"j.	c #A48161",
"k.	c #A68161",
"l.	c #A58160",
"m.	c #795338",
"n.	c #724C32",
"o.	c #714A2F",
"p.	c #6F472D",
"q.	c #643D24",
"r.	c #633D23",
"s.	c #643D25",
"t.	c #91694C",
"u.	c #896346",
"v.	c #896345",
"w.	c #7E593C",
"x.	c #7D583C",
"y.	c #795539",
"z.	c #795437",
"A.	c #663F28",
"B.	c #57321B",
"C.	c #674127",
"D.	c #8A6346",
"E.	c #775136",
"F.	c #A47F5F",
"G.	c #A48060",
"H.	c #A4805F",
"I.	c #A58060",
"J.	c #9D7959",
"K.	c #956F50",
"L.	c #936D4F",
"M.	c #916A4D",
"N.	c #896244",
"O.	c #876144",
"P.	c #866043",
"Q.	c #7A5538",
"R.	c #623C23",
"S.	c #734B32",
"T.	c #57311A",
"U.	c #653F26",
"V.	c #896246",
"W.	c #926C4E",
"X.	c #805B3D",
"Y.	c #805A3D",
"Z.	c #9D7859",
"`.	c #967051",
" +	c #946D4E",
".+	c #916B4D",
"++	c #855F43",
"@+	c #5E3820",
"#+	c #6D4C30",
"$+	c #643E25",
"%+	c #896245",
"&+	c #926C4D",
"*+	c #967152",
"=+	c #977153",
"-+	c #845E41",
";+	c #876245",
">+	c #A58161",
",+	c #916A4C",
"'+	c #694228",
")+	c #684027",
"!+	c #684228",
"~+	c #724A31",
"{+	c #6C4B2F",
"]+	c #56311A",
"^+	c #916C4D",
"/+	c #80593E",
"(+	c #825B40",
"_+	c #9D7758",
":+	c #9C7658",
"<+	c #846042",
"[+	c #855F42",
"}+	c #815B3E",
"|+	c #7B5538",
"1+	c #795337",
"2+	c #734C30",
"3+	c #724B2F",
"4+	c #714B2F",
"5+	c #805B3E",
"6+	c #674128",
"7+	c #674027",
"8+	c #56301A",
"9+	c #633C25",
"0+	c #886145",
"a+	c #805A3E",
"b+	c #825C40",
"c+	c #9C7758",
"d+	c #9E7959",
"e+	c #9C7858",
"f+	c #977253",
"g+	c #977152",
"h+	c #8E684A",
"i+	c #8D6648",
"j+	c #7F593D",
"k+	c #7E583D",
"l+	c #754F34",
"m+	c #9A7556",
"n+	c #9B7557",
"o+	c #8B6448",
"p+	c #8C6549",
"q+	c #7F583D",
"r+	c #6C462C",
"s+	c #58331C",
"t+	c #563019",
"u+	c #9A7555",
"v+	c #8A6348",
"w+	c #8A6347",
"x+	c #835C42",
"y+	c #835B40",
"z+	c #8C6548",
"A+	c #6F492D",
"B+	c #7F5A3E",
"C+	c #6D472B",
"D+	c #5A341D",
"E+	c #694C2F",
"F+	c #553019",
"G+	c #603921",
"H+	c #734D32",
"I+	c #744D33",
"J+	c #987354",
"K+	c #987454",
"L+	c #956F51",
"M+	c #835B41",
"N+	c #825A40",
"O+	c #8C6547",
"P+	c #724C30",
"Q+	c #70492F",
"R+	c #59341C",
"S+	c #5B351E",
"T+	c #6A4D30",
"U+	c #5A341C",
"V+	c #724C31",
"W+	c #8B6447",
"X+	c #613E23",
"Y+	c #623F24",
"Z+	c #6B4E30",
"`+	c #5B341D",
" @	c #79553A",
".@	c #7A553A",
"+@	c #6E462C",
"@@	c #6E472D",
"#@	c #6B452A",
"$@	c #674126",
"%@	c #6C4F31",
"&@	c #6A4D2D",
"*@	c #694C2C",
"=@	c #715334",
"-@	c #705234",
";@	c #6E5132",
">@	c #6E5032",
",@	c #6D5032",
"'@	c #6D4F31",
"            . .                 . . . . . .     . .             ",
"            . .                 . . . . . .     . .             ",
"    . . . . . . . . . . . . . . . . . . . . . . . . . . . . + + ",
"    . . . . . . . . . . @ # $ % & # * . . . . . . . . . . . + + ",
". . . . . . . . . . = - ; ; > , ' ) ! ~ { . . . . . . . . . + + ",
". . . . . . . . ] ^ / ( _ - _ : < [ } | 1 2 3 . . . . . . . + + ",
". . . . . . . 4 / / 5 6 7 7 7 7 7 7 7 8 8 9 0 a + + + . . . + + ",
". . . . . . b / / c 7 d 7 7 7 e 7 7 d 7 7 f g h c + + . . . + + ",
"    . . . . i / 2 7 7 7 7 d 7 7 7 j 7 7 7 7 k l m +   . . . + + ",
"    . . . 2 n ( 6 7 7 7 7 7 7 7 7 7 7 7 j 7 k 0 o p   . . . + + ",
". . . . . q r s t 7 j 7 e 7 7 d 7 7 e 7 d 7 u v w p   . . . + + ",
". . . . . x r s c 7 7 7 7 7 7 7 7 7 7 7 7 7 a y z p   . . . + + ",
"    . + + A B C D u 7 7 d 7 e 7 7 j 7 7 E F G H I J . . . . . . ",
"    . + K L M N O D P Q 7 7 7 7 7 7 7 R S G T U p V W . . . . . ",
"    . X Y B Z `  .r ..+.@.@.@.#.#.$.f %.y &.*.=.-.;.>.,.. . + + ",
"    . '.L ).!.~.{.].^.^.......O /.(., _._.x :.[ < <.[.}.. . + + ",
"    . X B Z |.1.2.3.4.5.6.7.7.8.9.9.0.a.b.c.d.[ < e.[.f.. . . . ",
"    . A g.Z 1.h.i.j.k.l.m.n.o.p.q.r.s.t.u.v.w.x.y.z.A.B.. . . . ",
". . . C.D.E.F.G.i.j.k.k.H.I.1.|.J.K.L.M.N.O.P.x.Q.R.S.T.. . + + ",
". . . U.V.W.X.Y.i.j.k.k.I.G.1.|.Z.`. +.+N.P.++=.@+S.#+T.. . + + ",
". . . $+%+&+*+=+-+;+P.k.>+H.1.|.Z.Z  +,+'+)+!+V V ~+{+]+. . + + ",
". . . $+%+^+/+(+_+|.:+-+<+[+}+|+1+2+3+4+5+c.c.6+7+~+{+8+. . + + ",
"    . 9+0+.+a+b+c+d+Z.e+f+=+g+L h+i+j+k+a+c.d.a.A {+{+8+. . . . ",
"    . . R.l+=+m+n+o+p+c+g+!.!.h+i+8.q+w.r+r+w.;.;.s+t+. . . . . ",
"    . . 7+b+m.m+u+v+w+:+!.x+y+6.z+A+A+B+C+r+x.;.D+E+F+. . . . . ",
"    . . . G+q+H+I+J+K+J+L+M+N+8.O+P+Q+c.j+w.R+S+T+F+. . . . . . ",
"    . . . . U+q+q+P+V+V+K.).).O+W+O+B+r.X+Y+Z+Z+t+. . . . . + + ",
"    . . . . . U+`+ @.@ @+@@@#@'+$@A U.%@&@*@8+8+. . . . . . + + ",
"    . . . . . . . U+U+U+=@-@-@;@>@,@'@T.T.]+. . . . . . . . + + ",
"    . . . . . . . . . . W W ,.,.}.}.T.. . . . . . . . . . . + + ",
"+ + + + + + . . . . + + . . + + + + + + + + . . + + + + + + + + ",
"+ + + + + + . . . . + + . . + + + + + + + + . . + + + + + + + + "};
