/* XPM */
static char * imp_idle_anim_f0_xpm[] = {
"32 32 6 1",
" 	c None",
".	c #222222",
"+	c #5F2D56",
"@	c #DA4E38",
"#	c #FDF7ED",
"$	c #62232F",
"                                ",
"                                ",
"                                ",
"                                ",
"                                ",
"                                ",
"                                ",
"                                ",
"              ....      ....    ",
"              ....      ....    ",
"            ..++..    ..++..    ",
"            ..++..    ..++..    ",
"        ......++........++..    ",
"        ......++........++..    ",
"        ..@@..++..@@@@..++..    ",
"        ..@@..++..@@@@..++..    ",
"        ..@@@@@@@@@@@@@@..      ",
"        ..@@@@@@@@@@@@@@..      ",
"        ..@@@@####@@@@##..      ",
"        ..@@@@####@@@@##..      ",
"        ..@@@@####@@@@##..      ",
"        ..@@@@####@@@@##..      ",
"        ..@@@@$$$$@@@@$$..      ",
"        ..@@@@$$$$@@@@$$..      ",
"        ..@@@@@@@@@@@@@@..      ",
"        ..@@@@@@@@@@@@@@..      ",
"        ..++++......++++..      ",
"        ..++++......++++..      ",
"        ....++..  ....++..      ",
"        ....++..  ....++..      ",
"          ......    ......      ",
"          ......    ......      "};
