/* XPM */
static char * wall_up_move00_xpm[] = {
"32 32 7 1",
" 	c #000000",
".	c #222222",
"+	c #AA8D7A",
"@	c #483B3A",
"#	c #D3BFA9",
"$	c #775C55",
"%	c #FFFFFF",
"                                ",
"                                ",
"                                ",
"                                ",
"                                ",
"................................",
".++++++++@.++++++++++.@+++++++++",
".+++++++++.++++++++++.++++++++++",
".++++#####.##########.######++++",
"................................",
".$$$$$.$$$$.$$$..$$$$.$$$$.$$.$$",
".@@@@@.@@@@.@@@@.@@@@.@@@@.@@@@.",
".@@@@@.@@.@.@.@@.@@@@.@@.@.@.@@@",
"..%%%%%%%%%%%%%%%%%%%%%%%%%%%%%%",
".$%                             ",
".@%                             ",
".@%                             ",
"..%                             ",
"@$%                             ",
"@@%                             ",
".@%                             ",
"@.%                             ",
".$%                             ",
".@%                             ",
".@%                             ",
"..%                             ",
"..%%%%%%%%%%%%%%%%%%%%%%%%%%%%%%",
"..@@.@@@@.@.@@@.@@.@@.@@.@@@@.$$",
"..@@@@@@@@@@@@@@@@@@@@@@@@@@@@$$",
"..@@@@@@@@@@@@@@@@@@@@@@@@@@@@$$",
"$$$$$$@@@@$$@@$$$$$$$$@@$$$$$$$$",
"$$$$$$@@@@$$@@$$$$$$$$@@$$$$$$$$"};
