/* XPM */
static char * Char_fram00_xpm[] = {
"32 32 7 1",
" 	c #222222",
".	c #483B3A",
"+	c #775C55",
"@	c #5F2D56",
"#	c #DA4E38",
"$	c #FDF7ED",
"%	c #62232F",
"      ..        ......  ..      ",
"      ..        ......  ..      ",
"  ............................++",
"  ............................++",
"............    ......    ....++",
"............    ......    ....++",
"..........  @@  ....  @@  ....++",
"..........  @@  ....  @@  ....++",
"  ....      @@        @@  ....++",
"  ....      @@        @@  ....++",
"......  ##  @@  ####  @@  ....++",
"......  ##  @@  ####  @@  ....++",
"  ....  ##############  ........",
"  ....  ##############  ........",
"  ....  ####$$$$####$$  ......++",
"  ....  ####$$$$####$$  ......++",
"  ....  ####$$$$####$$  ........",
"  ....  ####$$$$####$$  ........",
"......  ####%%%%####%%  ......++",
"......  ####%%%%####%%  ......++",
"......  ##############  ......++",
"......  ##############  ......++",
"  ....  @@@@      @@@@  ........",
"  ....  @@@@      @@@@  ........",
"  ....    @@  ..    @@  ........",
"  ....    @@  ..    @@  ........",
"  ......      ....      ......++",
"  ......      ....      ......++",
"  ............................++",
"  ............................++",
"++++++....++..++++++++..++++++++",
"++++++....++..++++++++..++++++++"};
