/* XPM */
static char * Char_fram06_xpm[] = {
"32 32 7 1",
" 	c #222222",
".	c #483B3A",
"+	c #5F2D56",
"@	c #775C55",
"#	c #DA4E38",
"$	c #FDF7ED",
"%	c #62232F",
"      ..          ....          ",
"      ..          ....          ",
"  ..........  ++  ....  ++  ..@@",
"  ..........  ++  ....  ++  ..@@",
"........      ++        ++  ..@@",
"........      ++        ++  ..@@",
"........  ##  ++  ####  ++  ..@@",
"........  ##  ++  ####  ++  ..@@",
"  ......  ##############  ....@@",
"  ......  ##############  ....@@",
"........  ####$$$$####$$  ....@@",
"........  ####$$$$####$$  ....@@",
"  ......  ####$$$$####$$  ......",
"  ......  ####$$$$####$$  ......",
"  ......  ####%%%%####%%  ....@@",
"  ......  ####%%%%####%%  ....@@",
"  ......  ##############  ......",
"  ......  ##############  ......",
"........  ++++      ++++  ....@@",
"........  ++++      ++++  ....@@",
"........    ++  ..    ++  ....@@",
"........    ++  ..    ++  ....@@",
"  ........    ......    ........",
"  ........    ......    ........",
"  ..............................",
"  ..............................",
"  ............................@@",
"  ............................@@",
"  ............................@@",
"  ............................@@",
"@@@@@@....@@..@@@@@@@@..@@@@@@@@",
"@@@@@@....@@..@@@@@@@@..@@@@@@@@"};
