/* XPM */
static char * ene_fra03_xpm[] = {
"32 32 6 1",
" 	c #222222",
".	c #483B3A",
"+	c #775C55",
"@	c #9F294E",
"#	c #DA4E38",
"$	c #FDF7ED",
"      ..        . ....  ..      ",
"      ..        .  ...  ..      ",
"  .........        .     .....++",
"  .....    @##@@##      ......++",
"......   @ $##$$## @ @    ....++",
"....... @# $##$$## @## @    ..++",
"......  ##  ##  ## @###@ .....++",
".....   ##@       @##@@   ....++",
"  ..... ###@@@@@@@####@@  ....++",
"  .....   # # # # # # @   ....++",
".......  $ $ $ $ $        ....++",
"........   $   $       .. ....++",
"  .......              .........",
"  ........           . .........",
"  ........ .       . .........++",
"  ...........     .. .........++",
"  ........ .       . ...........",
"  ... ...            . .. ......",
".....  .               .  ....++",
"......    $     $        .....++",
"......  $ $ $ $ $ $       ....++",
".......  @ # # # # @ @    ....++",
"  ..... @############# @ .......",
"  ....  ############@@@@ .......",
"  ...   ########@####@@   ......",
"  ..... ##@@##@@@@@@@@@@   .....",
"  ..... @@@@@@@@@@@@@@@@ .....++",
"  ...... @@@@      @@@@ ......++",
"  ....... @@ ...... @@ .......++",
"  ........   .......   .......++",
"++++++....++..++++++++..++++++++",
"++++++....++..++++++++..++++++++"};
