/* XPM */
static char * ene_fra02_xpm[] = {
"32 32 6 1",
" 	c #222222",
".	c #483B3A",
"+	c #9F294E",
"@	c #DA4E38",
"#	c #775C55",
"$	c #FDF7ED",
"      ..        . ....  ..      ",
"      ..           .    ..      ",
"  .....    +@@++@@   +   .....##",
"  ....   + $@@$$@@ + @    ....##",
"...... . @ $@@$$@@ +@@+ .. ...##",
".......  @  @@  @@ +@+   .....##",
"......   @+       +@@@+   ....##",
"...... .  + + + + +@@      ...##",
"  ...... $ $ $ $ $      .  ...##",
"  .......  $   $        .. ...##",
".........              .......##",
"..........           . .......##",
"  ........           . .........",
"  ........ . .     . ...........",
"  .............  . . .........##",
"  ........ ....  .............##",
"  .......... .    .. ...........",
"  ........ .         . .........",
"...... ...             .. ....##",
"...... .               .  ....##",
"......    $     $        .....##",
"......  $ $ $ $ $ $       ....##",
"  .....  + @ @ @ @ + +    ......",
"  ..... +@@@@@@@@@@@@@ + .......",
"  ...   @@@@@@@@@@@@++++ .......",
"  ....  @@@@@@@@+@@@@++    .....",
"  ..... @@++@@++++++++++  ....##",
"  ..... ++++++++++++++++ .....##",
"  ...... ++++      ++++ ......##",
"  ....... ++ ...... ++ .......##",
"######....##..########..########",
"######....##..########..########"};
